<?xml version="1.0" standalone="no"?>
<!DOCTYPE svg PUBLIC "-//W3C//DTD SVG 20010904//EN"
 "http://www.w3.org/TR/2001/REC-SVG-20010904/DTD/svg10.dtd">
<svg version="1.0" xmlns="http://www.w3.org/2000/svg"
 width="274.000000pt" height="364.000000pt" viewBox="0 0 274.000000 364.000000"
 preserveAspectRatio="xMidYMid meet">
<metadata>
Created by potrace 1.16, written by Peter Selinger 2001-2019
</metadata>
<g transform="translate(0.000000,364.000000) scale(0.009133,-0.018200)"
fill="#000000" stroke="none">
<path d="M9355 17280 c-268 -42 -528 -188 -685 -386 -100 -124 -174 -269 -211
-411 -27 -102 -37 -323 -19 -430 68 -425 383 -763 814 -874 103 -27 306 -36
413 -20 349 54 639 258 803 564 86 161 122 308 122 498 0 284 -103 535 -303
740 -151 154 -341 259 -554 305 -85 19 -298 26 -380 14z m320 -204 c178 -34
333 -115 456 -238 128 -128 200 -255 240 -424 18 -75 20 -111 17 -229 -4 -126
-8 -150 -37 -237 -43 -127 -102 -226 -193 -323 -171 -184 -386 -275 -647 -275
-155 0 -257 22 -386 84 -144 69 -264 171 -349 298 -18 26 -36 45 -41 40 -5 -4
-5 -2 -1 5 3 6 -2 27 -12 45 -28 49 -60 139 -78 219 -25 109 -15 317 20 428
96 310 346 536 666 605 84 19 256 20 345 2z"/>
<path d="M9064 16735 c-7 -18 -19 -2 236 -343 107 -144 200 -261 207 -262 9 0
380 157 496 211 29 13 36 34 14 42 -8 3 -123 -42 -256 -100 -133 -58 -243
-104 -245 -102 -2 2 -97 128 -211 279 -114 151 -213 279 -221 283 -9 5 -16 3
-20 -8z"/>
<path d="M17953 16930 c-48 -15 -83 -63 -83 -113 0 -44 35 -130 74 -182 12
-16 25 -35 28 -40 4 -7 -17 -11 -59 -13 -73 -2 -113 -20 -147 -65 -17 -23 -21
-42 -20 -93 3 -122 90 -247 228 -324 41 -24 56 -37 52 -49 -40 -126 -47 -249
-21 -356 8 -33 14 -66 15 -72 0 -10 -653 -13 -3234 -13 -3186 0 -3235 0 -3297
-20 -153 -47 -264 -163 -304 -315 -13 -52 -15 -268 -15 -1798 0 -1649 -1
-1738 -17 -1736 -10 1 -777 1 -1704 0 l-1686 -1 -34 -23 c-19 -12 -41 -38 -51
-57 -9 -19 -76 -287 -148 -595 -72 -308 -152 -643 -177 -745 -24 -102 -55
-230 -68 -285 -12 -55 -64 -275 -115 -490 -63 -268 -90 -400 -86 -423 8 -49
29 -77 78 -101 l43 -20 1820 2 c1721 2 1822 3 1848 20 44 29 58 60 97 229 36
151 122 516 176 738 l22 95 1 -847 1 -848 148 0 c156 0 171 -4 214 -55 20 -24
43 -117 35 -139 -6 -15 -412 -16 -4557 -16 l-4550 0 0 -45 0 -45 4556 0 4556
0 -7 -42 c-10 -62 -41 -123 -71 -137 -19 -8 -1083 -11 -4305 -11 l-4279 0 0
-195 c0 -182 1 -196 20 -215 20 -20 33 -20 734 -20 l715 0 -4 -27 c-3 -16 -23
-102 -45 -193 -22 -91 -56 -230 -75 -310 l-34 -144 25 -43 c40 -69 137 -184
205 -244 286 -250 715 -405 1289 -464 339 -35 811 -45 1160 -24 102 6 205 11
230 12 66 1 654 -24 659 -28 2 -2 7 -98 12 -212 4 -114 10 -254 14 -310 l6
-103 -1974 0 c-1572 0 -1974 -3 -1974 -12 -1 -16 -53 -245 -60 -264 -4 -12
299 -14 2009 -14 l2014 0 12 -186 c17 -261 62 -583 137 -979 13 -71 27 -146
29 -165 3 -19 24 -127 48 -240 l43 -205 368 -3 c289 -2 368 0 372 10 15 49 52
770 66 1306 l13 462 97 0 97 0 6 -47 c3 -27 8 -88 11 -138 16 -242 51 -501
117 -860 22 -121 43 -242 48 -270 4 -27 26 -140 49 -249 23 -110 41 -201 41
-203 0 -2 166 -3 369 -3 l370 0 5 42 c7 53 26 305 32 413 2 44 8 174 14 289 6
114 15 391 20 615 5 223 9 407 10 409 0 1 86 2 191 2 177 0 190 1 185 18 -3 9
-15 58 -26 107 -11 50 -25 107 -31 128 l-10 37 -158 0 -158 0 -7 178 c-29 724
-127 1219 -283 1417 -63 80 -253 182 -693 370 -151 65 -277 119 -279 121 -2 2
498 4 1112 4 l1117 0 0 -95 0 -95 6975 0 c5566 0 6975 -3 6975 -12 0 -7 86
-242 192 -523 105 -280 219 -584 253 -675 l62 -165 -324 -5 -325 -5 -24 -28
c-24 -28 -24 -32 -24 -215 0 -160 3 -191 17 -212 9 -14 22 -28 27 -32 6 -4 84
-8 174 -8 89 0 162 -3 162 -8 0 -4 -72 -364 -160 -801 -88 -437 -160 -798
-160 -802 0 -3 -12 -7 -26 -7 -83 0 -115 -165 -42 -216 19 -14 14 -42 -196
-1088 -119 -591 -216 -1077 -216 -1081 0 -4 51 -7 113 -7 l113 0 183 593 c101
325 215 694 254 820 l71 227 1140 0 1141 0 228 -738 c125 -405 239 -774 253
-820 l25 -82 116 0 c105 0 115 2 111 18 -3 9 -101 497 -219 1084 l-214 1066
23 24 c17 19 22 36 22 82 0 70 -12 93 -56 112 -20 8 -36 23 -39 37 -15 62
-315 1562 -315 1574 0 10 34 13 160 13 223 0 210 -15 210 249 l0 199 -31 26
-31 26 -314 0 c-244 0 -314 3 -314 13 0 6 59 167 131 357 72 190 146 386 164
435 17 50 41 113 52 140 34 83 111 288 118 315 4 14 11 30 15 35 5 6 11 27 15
47 8 44 -21 102 -58 112 -12 3 -208 6 -434 6 -263 0 -413 4 -413 10 0 14 137
368 163 420 12 25 28 44 35 42 6 -1 12 4 12 11 0 29 339 331 515 459 210 153
547 351 660 389 22 8 42 17 45 20 14 17 246 100 255 91 8 -8 25 18 25 39 0 9
-7 20 -15 23 -34 13 -444 -161 -630 -267 -127 -72 -411 -265 -463 -314 -7 -7
-55 -46 -105 -87 -51 -41 -104 -84 -118 -97 -68 -63 -71 -63 -29 1 24 36 46
67 50 70 3 3 20 25 37 50 17 25 41 55 52 67 12 12 21 26 21 30 0 4 13 22 28
38 15 17 35 40 43 52 17 25 80 99 193 228 194 220 585 589 783 738 59 45 82
68 83 85 0 42 -42 26 -136 -49 -49 -40 -107 -88 -130 -108 -22 -20 -56 -49
-75 -66 -19 -16 -55 -48 -79 -69 -60 -52 -276 -263 -375 -367 -135 -142 -297
-332 -403 -473 -67 -88 -77 -99 -61 -63 7 15 15 27 19 27 4 0 10 13 13 29 3
16 13 36 22 44 8 9 15 20 15 26 0 5 24 55 53 111 28 55 63 122 76 148 13 26
28 50 35 54 6 4 8 8 3 8 -4 0 4 18 18 40 14 22 25 44 25 50 0 6 4 9 8 6 5 -3
9 1 9 8 0 8 25 56 56 109 32 52 57 98 57 101 0 9 42 69 55 78 6 4 6 8 1 8 -4
0 3 15 18 34 14 19 26 37 26 40 0 6 197 317 234 371 12 17 26 37 31 46 25 41
99 143 115 159 18 18 17 19 -13 33 l-31 16 -46 -64 c-25 -36 -58 -87 -75 -114
-16 -27 -33 -48 -36 -46 -3 2 -6 -1 -6 -8 0 -7 -20 -41 -44 -77 -24 -36 -50
-78 -58 -93 -8 -15 -18 -27 -23 -27 -4 0 -8 -5 -8 -10 0 -6 -17 -37 -38 -68
-21 -31 -70 -113 -110 -182 -40 -69 -77 -132 -82 -140 -14 -25 -111 -193 -122
-215 -7 -11 -34 -63 -61 -115 -57 -108 -63 -117 -53 -76 73 303 118 681 132
1097 7 225 3 259 -30 259 l-23 0 -6 -277 c-6 -271 -22 -491 -52 -683 -46 -292
-124 -613 -179 -730 -29 -62 -30 -59 -16 60 13 113 13 473 -1 597 -23 209 -93
502 -151 631 -15 35 -28 70 -28 77 0 12 -21 25 -40 25 -21 0 -19 -42 4 -91 35
-78 96 -270 89 -282 -3 -5 -1 -12 5 -16 10 -6 22 -62 60 -281 21 -120 23 -594
4 -710 -19 -113 -19 -113 -21 -148 0 -18 -5 -31 -10 -28 -5 4 -7 -3 -4 -13 5
-22 -19 -113 -42 -157 -8 -16 -15 -34 -15 -40 0 -6 -19 -58 -43 -115 -24 -57
-67 -168 -97 -246 l-53 -143 -83 0 -84 0 0 1030 c0 567 -2 1030 -5 1030 -3 0
-16 -9 -28 -21 l-22 -20 -3 37 c-2 21 6 81 18 133 24 103 96 320 111 336 5 5
9 16 9 24 0 8 9 35 21 60 11 25 31 69 44 96 12 28 26 60 30 73 3 12 11 19 17
16 7 -4 8 -2 4 5 -4 6 2 24 13 40 12 16 21 32 21 35 0 15 136 231 197 312 93
126 153 195 250 290 82 80 94 99 72 121 -14 14 -30 2 -144 -112 -97 -96 -159
-170 -242 -287 -29 -40 -61 -84 -70 -97 -82 -114 -232 -425 -310 -641 l-44
-125 6 80 c9 110 59 400 90 515 14 52 28 104 30 114 27 115 100 327 110 318 5
-4 5 -1 1 6 -6 11 23 106 42 136 3 6 7 18 9 26 2 17 46 127 75 190 12 25 22
50 24 55 7 35 88 193 96 189 6 -4 8 2 4 13 -4 14 2 29 21 48 16 16 23 25 17
22 -7 -4 -14 0 -18 8 -3 8 -11 15 -17 15 -7 0 -22 8 -33 18 -17 14 -19 14 -8
0 11 -14 7 -27 -23 -86 -19 -38 -35 -72 -35 -76 0 -3 -15 -39 -34 -79 -100
-211 -234 -594 -306 -873 -22 -88 -43 -172 -45 -187 -10 -68 -25 -141 -30
-145 -3 -3 -5 30 -6 74 0 43 -2 97 -4 119 -21 265 -35 500 -31 511 3 8 2 14
-2 14 -5 0 -14 71 -20 158 -12 152 -57 623 -66 690 l-5 32 72 0 c40 0 89 -4
110 -9 l37 -9 0 1807 c0 1751 -1 1810 -19 1883 -41 160 -160 282 -316 322 -53
14 -408 16 -3352 16 -1811 0 -3293 2 -3293 4 0 3 7 35 16 73 34 144 1 284 -89
378 -44 45 -45 49 -32 74 34 66 38 174 10 231 -45 88 -221 151 -555 200 l-155
23 -42 86 c-83 174 -192 253 -283 206 -33 -17 -52 -48 -69 -111 l-11 -42 -73
73 c-107 107 -209 150 -294 125z m1132 -810 c32 -30 32 -66 -1 -127 -30 -57
-27 -101 11 -175 32 -61 31 -91 -1 -134 -35 -45 -33 -76 6 -120 25 -29 31 -43
26 -65 -3 -16 -9 -42 -12 -57 -6 -32 17 -66 53 -77 17 -5 36 7 93 59 80 74
129 94 184 76 33 -11 76 -49 93 -85 43 -86 4 -248 -82 -344 l-37 -41 2931 -2
2931 -3 32 -33 33 -32 3 -2401 c1 -1320 -1 -2398 -6 -2395 -11 7 -12 2 -18
-389 -6 -356 4 -606 32 -785 3 -19 14 -89 24 -156 11 -66 22 -128 26 -137 3
-10 1 -17 -6 -17 -6 0 -8 5 -5 10 3 6 2 10 -4 10 -5 0 -13 10 -17 23 -8 25
-83 185 -150 320 -24 49 -44 95 -44 102 0 7 -6 20 -13 27 -7 7 -32 54 -56 103
-66 137 -66 138 -81 165 -7 14 -16 32 -21 41 -4 8 -41 80 -82 160 -76 147
-104 201 -118 231 -5 9 -29 56 -55 103 -25 49 -43 94 -39 102 4 13 3 14 -10 3
-8 -7 -15 -9 -15 -6 0 4 -9 2 -19 -4 -17 -9 -19 -14 -9 -43 6 -17 14 -36 18
-42 15 -20 175 -325 230 -435 12 -25 26 -54 32 -64 33 -61 128 -257 130 -268
2 -7 6 -15 9 -18 6 -5 41 -77 194 -395 37 -77 68 -146 68 -152 0 -7 3 -13 7
-13 8 0 32 -51 27 -57 -2 -2 -28 31 -58 74 -60 88 -162 224 -223 298 -23 27
-48 58 -56 69 -147 186 -577 628 -715 734 -16 13 -24 20 -16 16 9 -4 12 -3 7
4 -10 17 -51 -2 -51 -24 0 -12 32 -48 80 -90 179 -158 592 -592 664 -698 8
-11 17 -23 20 -26 14 -12 123 -152 180 -230 34 -47 73 -98 86 -115 14 -16 25
-35 25 -41 0 -5 8 -19 18 -30 26 -28 87 -127 84 -136 -1 -5 2 -8 7 -8 5 0 23
-25 39 -55 17 -30 28 -55 26 -55 -3 0 -60 53 -127 119 -175 170 -325 295 -482
402 -44 30 -82 56 -85 59 -18 18 -228 139 -335 193 -175 88 -227 110 -274 115
-39 4 -43 3 -38 -12 4 -10 7 -21 7 -25 0 -6 60 -32 86 -37 14 -2 224 -107 319
-159 202 -110 520 -345 704 -520 99 -94 95 -90 181 -181 130 -139 161 -174
154 -174 -7 0 -122 28 -142 35 -7 3 -13 4 -15 4 -1 -1 -19 6 -41 15 -54 22
-56 21 -56 -26 0 -55 -17 -87 -59 -115 l-34 -23 -6706 0 -6706 0 -36 24 c-24
16 -39 37 -47 64 -9 30 -12 854 -12 3467 0 3180 1 3430 17 3462 9 20 30 44 47
54 30 18 76 19 1288 19 l1258 0 5 -22 c3 -13 21 -113 40 -223 19 -110 77 -442
130 -738 52 -296 95 -540 95 -541 0 -2 19 -16 42 -31 23 -15 64 -48 90 -73 26
-25 48 -43 48 -41 0 3 -36 158 -80 344 -45 187 -89 378 -100 425 -10 47 -49
209 -85 360 -76 320 -125 530 -125 536 0 2 819 4 1820 4 l1820 0 0 30 c0 19
-13 47 -35 75 -42 55 -55 100 -55 185 0 91 16 138 61 183 36 36 38 43 41 105
l3 66 76 0 c70 1 84 5 155 42 93 48 111 76 77 122 -43 58 -128 60 -252 6 l-54
-24 6 67 c5 49 17 89 42 141 l36 72 55 0 c39 0 80 -10 147 -37 169 -67 289
-57 502 42 116 53 175 57 220 15z m7160 -4529 c-3 -5 8 -144 24 -308 54 -544
102 -1154 100 -1283 l0 -55 -15 60 c-55 218 -154 559 -184 630 -4 11 -18 49
-31 85 -12 36 -30 83 -39 105 -46 106 -80 198 -75 205 3 5 0 12 -6 16 -13 8
-44 75 -40 88 1 5 -2 12 -6 15 -10 7 -97 185 -108 221 -4 14 -16 36 -26 49
-33 41 -24 55 51 89 82 37 214 71 353 91 5 0 6 -3 2 -8z m-17734 -127 c38 -11
66 -28 95 -58 127 -133 55 -372 -143 -472 -50 -25 -69 -29 -138 -29 -69 0 -86
4 -126 27 -115 67 -148 214 -78 349 31 62 95 126 155 155 95 46 150 53 235 28z
m17309 -136 c30 -61 55 -114 56 -117 0 -3 12 -31 26 -61 59 -125 86 -190 81
-190 -3 0 -1 -6 5 -13 6 -7 25 -51 42 -97 17 -47 34 -94 39 -105 19 -43 62
-163 65 -181 2 -11 11 -37 20 -57 22 -54 137 -461 142 -502 0 -5 6 -28 12 -50
6 -22 13 -53 16 -70 3 -16 17 -90 31 -164 14 -74 24 -136 21 -138 -7 -7 -26
59 -19 70 3 6 1 7 -5 3 -7 -4 -12 -1 -12 8 0 9 -9 33 -20 53 -11 21 -20 46
-20 55 0 10 -3 18 -8 18 -4 0 -13 15 -20 33 -28 66 -161 319 -205 387 -74 114
-102 163 -99 174 2 6 0 8 -4 4 -4 -5 -14 3 -23 16 -9 13 -29 42 -44 65 -32 49
-189 244 -226 283 -124 128 -170 171 -194 184 -26 14 -28 19 -22 52 11 67 36
132 47 126 7 -5 8 -2 3 5 -14 24 66 150 141 223 57 55 107 97 114 98 3 0 30
-51 60 -112z m-291 -516 c112 -115 151 -158 220 -247 34 -44 69 -88 77 -98 22
-28 194 -285 194 -291 0 -3 20 -40 46 -82 25 -43 54 -96 65 -118 11 -23 32
-64 47 -91 36 -68 116 -246 142 -320 12 -33 25 -69 30 -80 19 -40 37 -105 31
-105 -8 0 -54 31 -61 41 -3 3 -41 35 -84 69 -79 63 -301 278 -366 355 -128
152 -248 338 -303 465 -15 36 -31 74 -36 85 -21 46 -61 183 -65 228 -3 27 -8
52 -11 57 -8 13 -16 210 -9 210 4 0 41 -35 83 -78z m-121 -664 c7 -7 12 -9 12
-5 0 4 19 0 43 -9 66 -25 87 -36 81 -45 -3 -5 2 -6 10 -3 8 3 36 -7 61 -22 93
-54 255 -234 211 -234 -30 0 -134 -249 -186 -445 -28 -104 -60 -242 -64 -280
-2 -16 -10 -77 -17 -135 -8 -63 -14 -204 -14 -349 0 -135 -2 -236 -4 -225 -2
10 -7 24 -11 29 -11 14 -65 238 -89 370 -29 154 -50 337 -59 495 -13 241 -7
870 9 870 3 0 10 -5 17 -12z m-14893 -158 c3 -5 14 -10 24 -10 11 0 29 -9 42
-21 24 -20 24 -20 2 -9 -13 6 -23 8 -23 5 0 -16 73 -35 108 -29 32 6 34 8 14
15 -12 5 -22 12 -22 17 0 13 48 32 65 26 8 -4 15 -1 15 5 0 17 71 12 105 -8
89 -52 65 -168 -62 -294 -56 -55 -199 -167 -213 -167 -15 0 -100 83 -100 98 0
8 -3 12 -7 9 -10 -10 -54 34 -46 46 3 6 1 7 -4 4 -12 -7 -54 51 -77 108 -17
39 -22 115 -8 115 4 0 13 13 19 29 6 18 26 37 49 50 41 21 109 28 119 11z
m15351 -227 c-4 -8 -2 -11 5 -7 8 4 9 -1 4 -16 -4 -14 -3 -20 3 -16 14 8 51
-134 64 -247 12 -110 3 -363 -18 -495 -26 -165 -60 -313 -117 -517 -25 -86
-37 -123 -105 -314 l-30 -83 -21 47 c-55 123 -74 565 -37 855 1 14 6 55 11 92
5 44 11 65 18 61 7 -4 8 0 3 12 -23 61 180 671 216 649 5 -3 7 -13 4 -21z
m-16777 -3980 c7 -197 15 -368 18 -380 5 -23 4 -23 -94 -23 l-100 0 -6 188
c-6 183 -21 405 -32 489 l-6 41 83 20 c140 33 122 76 137 -335z m17735 -495
c19 -62 76 -246 126 -408 50 -162 130 -419 177 -570 47 -151 102 -329 123
-395 20 -66 36 -121 35 -123 -3 -4 -1805 -8 -1805 -4 0 5 448 1447 476 1535
l26 77 403 0 404 0 35 -112z m582 -1878 l42 -135 -1061 -3 c-583 -1 -1062 -1
-1063 1 -2 2 16 65 39 140 l42 137 980 -2 979 -3 42 -135z"/>
<path d="M18603 15875 c-37 -16 -55 -46 -51 -83 4 -33 74 -82 154 -107 127
-40 242 21 190 101 -20 29 -97 69 -173 89 -69 18 -79 18 -120 0z"/>
<path d="M18387 15578 c-43 -90 -77 -168 -77 -174 0 -7 16 -26 35 -42 35 -31
92 -49 120 -38 25 9 5 34 -33 41 -20 3 -47 15 -59 25 l-23 18 70 143 c39 79
70 154 70 166 0 55 -31 12 -103 -139z"/>
<path d="M19377 15359 c-26 -17 -61 -47 -77 -68 -56 -67 -93 -207 -53 -199 11
2 20 17 25 42 12 56 38 106 55 106 9 0 33 -10 55 -22 33 -19 41 -20 48 -8 12
19 5 27 -42 51 -37 19 -39 21 -24 38 9 10 32 27 52 37 32 18 42 43 18 51 -5 2
-31 -11 -57 -28z"/>
<path d="M12413 14773 c-16 -6 -18 -229 -3 -238 14 -9 210 102 210 118 0 7
-26 27 -57 44 -32 18 -76 43 -98 56 -22 14 -46 22 -52 20z"/>
<path d="M12118 14717 c-48 -29 -88 -57 -88 -63 0 -16 191 -126 207 -120 11 4
13 31 11 118 -4 138 -5 139 -130 65z"/>
<path d="M24776 14745 c-22 -22 -21 -27 14 -60 l30 -29 -31 -33 c-27 -27 -30
-35 -19 -48 18 -21 30 -19 62 12 l28 27 29 -28 c31 -30 64 -32 69 -4 2 10 -8
28 -22 41 -32 30 -32 38 -1 67 29 28 32 45 8 59 -14 8 -25 3 -50 -22 l-33 -31
-34 33 c-31 30 -34 31 -50 16z"/>
<path d="M24459 14719 c-41 -44 -40 -90 5 -135 47 -47 87 -46 132 2 38 40 43
75 18 114 -26 39 -45 50 -87 50 -31 0 -45 -7 -68 -31z"/>
<path d="M18930 14639 c-136 -69 -238 -98 -377 -106 l-103 -6 0 -41 c0 -23 8
-53 18 -67 35 -52 106 -129 118 -129 7 0 55 28 106 62 91 60 321 276 347 326
6 12 10 21 9 21 -2 -1 -55 -28 -118 -60z"/>
<path d="M18768 13945 c-18 -24 -43 -59 -56 -77 -13 -18 -43 -60 -67 -93 -25
-33 -45 -63 -45 -68 0 -4 25 -45 56 -92 l56 -84 -21 -158 c-12 -87 -28 -205
-36 -263 -8 -58 -23 -172 -34 -255 -11 -82 -27 -206 -36 -275 -9 -69 -25 -188
-35 -265 -10 -77 -26 -196 -35 -265 -9 -69 -23 -170 -30 -225 -8 -55 -19 -136
-24 -180 -9 -77 -16 -125 -61 -465 -12 -85 -27 -204 -35 -265 -8 -60 -23 -175
-33 -255 l-19 -145 69 -165 c39 -91 105 -250 148 -355 115 -282 172 -416 175
-413 3 3 57 106 190 363 127 245 228 441 266 512 l33 62 -33 328 c-31 316 -48
486 -70 698 -22 208 -41 397 -61 595 -11 113 -27 268 -35 345 -9 77 -29 275
-46 440 -16 165 -36 367 -45 448 l-15 149 61 93 62 93 -18 29 c-10 15 -21 30
-24 33 -13 13 -81 101 -120 158 -23 34 -44 62 -46 62 -2 0 -18 -20 -36 -45z"/>
<path d="M14775 13040 c-10 -11 -26 -22 -36 -25 -23 -8 -24 -28 -3 -46 12 -10
14 -23 9 -56 -8 -58 61 -453 83 -470 29 -24 107 -10 159 28 25 17 28 -5 -36
274 -64 279 -63 278 -102 288 -19 5 -39 13 -45 18 -7 6 -17 2 -29 -11z"/>
<path d="M14292 9983 c-67 -33 -93 -108 -57 -161 15 -20 14 -24 -7 -52 -45
-61 -23 -141 47 -174 125 -60 295 -3 295 99 0 35 -26 95 -41 95 -4 0 2 18 14
39 21 37 21 42 7 83 -12 35 -24 47 -60 66 -54 27 -148 30 -198 5z"/>
<path d="M14700 9983 c-19 -10 -47 -37 -64 -60 -25 -36 -30 -54 -33 -120 -4
-70 -2 -83 24 -133 22 -43 38 -60 73 -77 86 -44 186 -19 237 58 26 39 28 50
28 133 0 104 -13 139 -71 183 -47 35 -140 43 -194 16z m114 -115 c35 -49 13
-188 -29 -188 -27 0 -45 43 -45 105 0 62 18 105 45 105 8 0 21 -10 29 -22z"/>
<path d="M22100 9795 l0 -175 140 0 140 0 0 45 0 45 -80 0 -80 0 0 130 0 130
-60 0 -60 0 0 -175z"/>
<path d="M22410 9795 l0 -175 60 0 60 0 0 175 0 175 -60 0 -60 0 0 -175z"/>
<path d="M22554 9953 c4 -10 37 -89 74 -176 l67 -158 59 3 59 3 72 173 73 172
-58 0 -58 0 -37 -87 c-20 -49 -41 -92 -45 -96 -4 -4 -25 35 -46 87 l-39 96
-64 0 c-56 0 -62 -2 -57 -17z"/>
<path d="M22970 9795 l0 -175 145 0 145 0 0 45 0 45 -85 0 c-84 0 -85 0 -85
25 0 24 2 25 75 25 l75 0 0 40 0 40 -75 0 c-68 0 -75 2 -75 20 0 17 8 19 83
22 l82 3 3 43 3 42 -145 0 -146 0 0 -175z"/>
<path d="M18560 9180 c0 -7 -869 -11 -2572 -13 l-2573 -2 2593 -3 c2298 -2
2592 0 2592 13 0 8 -9 15 -20 15 -11 0 -20 -4 -20 -10z"/>
<path d="M13290 8697 c0 -375 2 -435 16 -455 l15 -22 5214 0 5214 0 15 22 c14
20 16 80 16 455 l0 433 -5245 0 -5245 0 0 -433z m9560 208 l0 -35 -50 0 -50 0
0 -40 0 -40 -40 0 -40 0 0 56 c0 88 7 94 100 94 l80 0 0 -35z m258 23 c7 -7
12 -39 12 -75 l0 -63 -40 0 -40 0 0 40 0 40 -45 0 c-45 0 -45 0 -45 35 l0 35
73 0 c43 0 78 -5 85 -12z m-9031 -99 c225 -130 209 -118 186 -133 -29 -21
-352 -206 -358 -206 -3 0 -5 97 -5 215 0 128 4 215 9 215 6 0 81 -41 168 -91z
m884 71 c18 -10 19 -23 19 -199 0 -206 2 -201 -60 -201 -56 0 -60 14 -60 205
0 144 3 176 16 189 18 18 56 21 85 6z m252 -3 c16 -11 17 -32 15 -197 l-3
-185 -27 -9 c-18 -6 -38 -6 -55 0 l-28 9 -3 185 c-3 203 -1 210 58 210 14 0
34 -6 43 -13z m7537 -282 l0 -45 50 0 50 0 0 -35 0 -35 -80 0 c-94 0 -100 6
-100 99 l0 61 40 0 40 0 0 -45z m370 -16 c0 -92 -7 -99 -95 -99 l-75 0 0 35
c0 35 0 35 45 35 l45 0 0 45 0 45 40 0 40 0 0 -61z"/>
<path d="M5267 14769 c-275 -37 -432 -254 -503 -697 -12 -70 -18 -222 -24
-552 -7 -370 -12 -483 -29 -605 -41 -298 -106 -567 -187 -779 -7 -17 -4 -18
30 -12 20 4 71 11 113 16 72 8 81 7 128 -17 67 -34 183 -153 222 -228 29 -56
73 -205 73 -247 0 -10 31 -129 69 -265 37 -137 103 -376 145 -533 43 -157 107
-391 142 -520 80 -289 152 -552 200 -730 20 -74 47 -171 59 -215 l22 -80 53
-18 c150 -51 523 -81 835 -68 139 6 141 7 190 40 77 53 228 210 284 296 28 43
58 100 66 128 26 87 19 278 -19 577 -19 146 -40 315 -46 375 -9 90 -17 123
-44 180 -88 183 -144 431 -153 673 l-6 152 -46 28 c-76 46 -267 127 -418 176
-78 25 -145 46 -150 46 -4 0 -7 -36 -5 -80 8 -158 -32 -334 -91 -405 -15 -19
-49 -47 -75 -62 -40 -24 -58 -28 -127 -28 -85 0 -118 11 -200 66 -140 95 -333
362 -487 674 l-59 120 -54 5 -54 5 84 145 c47 79 85 150 85 156 0 6 -11 19
-25 28 -36 23 -72 83 -84 138 -22 97 25 201 113 253 l45 26 -16 52 c-23 76
-21 191 4 248 25 56 78 99 132 106 50 7 100 -12 105 -41 3 -11 11 -57 19 -101
16 -86 41 -155 57 -155 5 0 12 12 16 28 12 57 76 262 122 395 l49 139 84 3
c160 7 359 95 499 221 24 21 44 33 49 28 5 -5 43 -54 84 -109 86 -115 186
-215 216 -215 34 0 58 36 74 115 7 33 35 -43 48 -127 25 -172 20 -160 61 -174
l37 -13 7 36 c4 20 7 85 8 145 1 92 3 108 16 104 113 -38 130 -34 130 26 -1
181 -112 329 -335 447 -33 18 -90 54 -128 80 -37 27 -98 65 -135 84 -143 75
-401 147 -527 147 -60 0 -66 2 -81 28 -101 164 -233 275 -384 320 -81 24 -194
33 -283 21z m661 -351 c19 -19 -6 -38 -48 -38 -21 0 -71 -6 -112 -14 -297 -58
-497 -233 -594 -518 -83 -244 -74 -515 24 -756 22 -54 24 -65 12 -72 -25 -16
-30 -12 -60 53 -72 152 -102 372 -77 563 42 327 195 571 436 697 137 72 382
122 419 85z"/>
<path d="M6270 13543 c-43 -7 -88 -24 -98 -36 -8 -9 2 -12 39 -14 27 -1 74
-13 108 -28 66 -30 96 -27 105 10 15 60 -44 87 -154 68z"/>
<path d="M6668 13473 c-22 -5 -35 -50 -21 -72 20 -32 66 -46 146 -45 43 1 81
5 84 8 12 12 -42 58 -103 87 -61 29 -72 31 -106 22z"/>
<path d="M6858 13286 c37 -42 37 -40 17 -143 -19 -98 -19 -93 9 -93 21 0 27
10 50 83 40 126 43 153 17 167 -12 6 -45 14 -74 17 l-52 6 33 -37z"/>
<path d="M5430 13207 c0 -7 20 -35 45 -61 46 -49 49 -66 14 -66 -29 0 -81 -29
-76 -43 4 -12 18 -12 93 -1 l41 6 12 -46 c6 -24 11 -63 11 -86 0 -34 3 -41 18
-38 14 3 17 15 16 75 0 59 -6 82 -32 136 -44 88 -142 174 -142 124z"/>
<path d="M5315 12871 c-94 -57 -128 -169 -80 -262 18 -34 75 -83 86 -72 4 4
26 43 49 85 l41 77 41 -29 c47 -34 58 -37 52 -12 -3 12 7 22 36 36 51 24 64
40 57 68 -6 21 -11 23 -55 20 -61 -5 -117 22 -156 72 -15 20 -30 36 -34 36 -4
0 -21 -8 -37 -19z"/>
<path d="M5620 12583 c0 -2 18 -30 39 -62 52 -76 182 -197 284 -264 77 -51
266 -152 271 -145 3 4 26 159 26 174 0 6 -26 16 -57 23 -129 28 -316 115 -480
224 -46 30 -83 53 -83 50z"/>
<path d="M5317 12118 c14 -29 54 -105 89 -168 223 -398 401 -582 566 -581 104
0 169 51 209 165 29 81 41 369 16 379 -10 4 -17 -1 -20 -14 -3 -12 -31 -31
-73 -51 -167 -78 -380 -32 -599 130 -123 91 -187 152 -182 174 4 12 0 18 -13
18 -17 0 -16 -4 7 -52z"/>
<path d="M4224 10513 c12 -40 46 -402 57 -603 16 -310 -2 -576 -62 -907 -16
-89 -29 -179 -29 -198 0 -41 18 -81 52 -112 40 -38 153 -80 146 -55 -3 13 25
210 32 222 6 10 360 60 428 60 21 0 32 5 32 15 0 13 -516 1565 -522 1570 -4 3
-119 25 -130 25 -5 0 -7 -8 -4 -17z"/>
<path d="M3660 9764 c0 -5 -14 -111 -32 -236 -17 -126 -30 -230 -27 -232 2 -2
43 -6 91 -8 48 -2 82 -1 76 3 -8 5 -4 60 16 206 16 109 30 210 33 224 5 26 4
27 -63 34 -37 4 -73 9 -81 12 -7 3 -13 1 -13 -3z"/>
<path d="M3421 9501 c2 -207 3 -218 20 -214 18 5 19 18 19 188 0 199 -5 245
-27 245 -12 0 -14 -35 -12 -219z"/>
<path d="M3047 9242 c-20 -4 -24 -66 -4 -79 17 -10 778 -12 800 -1 17 9 26 77
10 79 -18 3 -791 4 -806 1z"/>
<path d="M3063 9104 c-21 -22 -16 -77 7 -92 12 -7 26 -9 33 -5 16 10 70 3 79
-10 3 -5 4 -17 0 -25 -3 -10 -1 -13 6 -8 7 4 12 16 12 27 0 20 7 20 294 18
162 -1 299 1 304 5 6 4 12 -7 15 -26 l4 -33 1 33 c1 17 7 32 13 32 6 0 9 16 7
38 l-3 37 -368 0 c-319 0 -367 2 -367 15 0 12 -2 13 -9 1 -5 -7 -10 -9 -12 -3
-2 6 -9 5 -16 -4z"/>
<path d="M3090 8979 c0 -9 -6 -22 -13 -28 -16 -12 -10 -72 7 -83 6 -4 11 -13
12 -20 0 -7 2 -21 2 -30 3 -32 20 -19 18 15 0 20 4 32 12 31 6 -1 142 -2 302
-2 263 -2 289 -3 283 -18 -4 -11 -2 -15 6 -13 7 3 12 8 11 13 -3 15 23 25 44
16 45 -17 67 68 24 91 -16 9 -23 9 -26 1 -3 -9 -9 -9 -24 -1 -11 6 -27 8 -36
4 -13 -5 -420 -6 -542 -2 -8 0 -30 -3 -47 -7 -23 -5 -33 -4 -33 4 0 6 5 8 10
5 13 -8 13 5 0 25 -8 13 -10 13 -10 -1z"/>
<path d="M3708 8811 c-2 -6 -129 -11 -316 -12 l-312 -2 6 -36 c9 -50 11 -52
41 -40 19 7 28 6 34 -3 6 -9 13 -9 34 0 30 14 471 17 479 4 4 -7 55 -7 114 0
6 1 13 12 14 25 0 13 1 28 2 34 1 7 -12 13 -28 15 -16 2 -34 8 -39 13 -14 14
-24 14 -29 2z"/>
<path d="M3160 8664 c0 -12 -7 -15 -26 -11 -30 5 -37 -7 -26 -48 7 -25 14 -30
41 -31 18 -1 37 -7 42 -15 6 -10 9 -11 9 -1 0 10 58 12 273 12 150 -1 280 2
289 5 17 7 34 57 24 73 -3 5 -140 8 -306 8 -234 -1 -300 2 -300 12 0 6 -4 12
-10 12 -5 0 -10 -7 -10 -16z"/>
<path d="M3126 8504 c-11 -28 -6 -43 21 -68 24 -22 28 -23 47 -10 31 21 471
21 492 -1 11 -11 20 -12 34 -5 31 17 50 40 50 63 0 20 -5 22 -52 20 l-53 -1
45 7 c26 5 -87 9 -266 9 -276 2 -313 0 -318 -14z"/>
<path d="M8750 2503 c-8 -3 -57 -20 -108 -39 -128 -47 -184 -52 -250 -24 -28
12 -57 28 -63 36 -6 8 -26 14 -45 14 -42 0 -81 -37 -88 -83 -2 -17 -14 -102
-26 -187 -56 -396 -61 -447 -57 -540 2 -52 10 -106 17 -119 l12 -24 1631 7
c897 4 1634 9 1637 12 3 3 5 33 6 67 1 51 -3 68 -24 97 -48 66 -97 113 -164
157 -73 47 -195 106 -207 99 -4 -3 -39 -13 -78 -24 -80 -21 -116 -15 -111 19
3 24 18 35 63 44 26 6 27 8 12 17 -11 6 -22 6 -30 0 -19 -15 -155 -45 -173
-38 -10 4 -14 15 -12 33 2 22 10 30 40 38 43 12 59 25 32 26 -10 1 -23 0 -29
-1 -5 -1 -43 -11 -83 -22 -58 -15 -77 -16 -88 -7 -28 23 -12 53 35 68 74 23
24 31 -63 9 -89 -22 -106 -19 -106 16 0 27 25 46 59 46 12 0 21 4 21 9 0 19
-32 19 -105 -1 -69 -19 -78 -19 -92 -5 -26 26 -7 56 44 68 l45 12 -24 23 c-22
23 -24 23 -78 9 -73 -19 -109 -19 -117 1 -10 26 10 48 53 58 51 11 53 14 28
34 -12 9 -45 37 -75 61 -53 43 -55 43 -114 38 -33 -3 -96 -20 -140 -37 -143
-56 -236 -56 -308 0 -62 49 -147 1 -147 -82 0 -24 -7 -85 -15 -137 -9 -51 -13
-108 -9 -126 6 -32 4 -34 -32 -44 -109 -30 -145 -35 -155 -20 -20 32 -10 49
36 61 32 9 41 15 35 24 -8 8 -30 6 -89 -9 -92 -23 -114 -19 -109 20 2 23 10
29 46 38 36 9 40 12 25 21 -14 8 -35 6 -90 -9 -85 -23 -106 -19 -101 20 3 23
10 29 51 41 l48 13 -25 20 c-29 23 -44 23 -114 5 -57 -16 -77 -13 -86 10 -10
27 6 42 55 54 l49 12 -46 42 c-78 68 -110 86 -151 85 -21 0 -45 -3 -53 -6z"/>
</g>
</svg>
