<?xml version="1.0" encoding="UTF-8" standalone="no"?>
<!-- Created with Inkscape (http://www.inkscape.org/) -->

<svg
   xmlns:dc="http://purl.org/dc/elements/1.1/"
   xmlns:cc="http://creativecommons.org/ns#"
   xmlns:rdf="http://www.w3.org/1999/02/22-rdf-syntax-ns#"
   xmlns:svg="http://www.w3.org/2000/svg"
   xmlns="http://www.w3.org/2000/svg"
   xmlns:sodipodi="http://sodipodi.sourceforge.net/DTD/sodipodi-0.dtd"
   xmlns:inkscape="http://www.inkscape.org/namespaces/inkscape"
   version="1.1"
   id="svg101838"
   xml:space="preserve"
   width="800"
   height="800"
   viewBox="0 0 800 800"
   sodipodi:docname="Tajikistan-flag-paint-4-publicdomainvectors.org.svg"
   inkscape:version="0.92.4 (5da689c313, 2019-01-14)"><metadata
     id="metadata101844"><rdf:RDF><cc:Work
         rdf:about=""><dc:format>image/svg+xml</dc:format><dc:type
           rdf:resource="http://purl.org/dc/dcmitype/StillImage" /><dc:title></dc:title></cc:Work></rdf:RDF></metadata><defs
     id="defs101842"><clipPath
       clipPathUnits="userSpaceOnUse"
       id="clipPath101854"><path
         d="M 0,600 H 600 V 0 H 0 Z"
         id="path101852"
         inkscape:connector-curvature="0" /></clipPath></defs><sodipodi:namedview
     pagecolor="#ffffff"
     bordercolor="#666666"
     borderopacity="1"
     objecttolerance="10"
     gridtolerance="10"
     guidetolerance="10"
     inkscape:pageopacity="0"
     inkscape:pageshadow="2"
     inkscape:window-width="797"
     inkscape:window-height="480"
     id="namedview101840"
     showgrid="false"
     inkscape:zoom="0.295"
     inkscape:cx="400"
     inkscape:cy="400"
     inkscape:window-x="0"
     inkscape:window-y="0"
     inkscape:window-maximized="0"
     inkscape:current-layer="g101846" /><g
     id="g101846"
     inkscape:groupmode="layer"
     inkscape:label="Tajikistan-flag-paint-4-publicdomainvectors.org"
     transform="matrix(1.3333333,0,0,-1.3333333,0,800)"><g
       id="g101848"><g
         id="g101850"
         clip-path="url(#clipPath101854)"><path
           d="M 600,0 H 0 v 600 h 600 z"
           style="fill:#ebebeb;fill-opacity:1;fill-rule:nonzero;stroke:none"
           id="path101856"
           inkscape:connector-curvature="0" /><path
           d="m 59.251,254.013 c -0.025,0.008 -0.051,0.011 -0.077,0.019 -1.037,-0.567 -0.621,-0.374 0.077,-0.019"
           style="fill:#23642f;fill-opacity:1;fill-rule:nonzero;stroke:none"
           id="path101858"
           inkscape:connector-curvature="0" /><path
           d="m 497.26,247.093 c 0.003,0.612 -0.102,1.091 -0.271,1.482 h -2.507 c 0.851,-0.568 1.757,-1.085 2.778,-1.482"
           style="fill:#23642f;fill-opacity:1;fill-rule:nonzero;stroke:none"
           id="path101860"
           inkscape:connector-curvature="0" /><path
           d="m 64.413,248.575 h -5.922 c -0.361,-0.242 -0.71,-0.454 -1.044,-0.611 2.065,-0.392 4.118,-0.222 6.966,0.611"
           style="fill:#23642f;fill-opacity:1;fill-rule:nonzero;stroke:none"
           id="path101862"
           inkscape:connector-curvature="0" /><path
           d="m 65.251,262.712 c -0.65,-2.674 2.38,-1.665 1.733,-4.339 -1.417,-0.206 -3.754,-1.974 -5.537,-3.136 -0.184,-0.12 -0.364,-0.236 -0.536,-0.342 -0.301,-0.177 -1.078,-0.587 -1.66,-0.882 2.838,-0.686 5.326,2.222 3.392,-0.847 1.492,0.823 3.015,1.46 4.225,2.071 0.358,0.182 0.69,0.359 0.982,0.535 -0.458,-0.285 -0.621,0.407 0,0.874 1.303,0.962 3.77,1.951 4.34,0.86 -0.045,0.087 -2.71,-1.321 -2.603,-1.734 1.522,-0.781 2.747,2.207 3.363,0.391 -2.845,-0.314 -3.746,-2.572 -5.966,-3.521 3.556,-0.9 7.098,2.678 9.543,0 -1.768,0.745 -5.386,-0.748 -2.604,-1.726 0.009,1.131 2.404,1.1 2.604,0 -2.37,0.627 -1.747,-1.728 -3.47,-1.742 -1.695,2.113 -8.417,0.854 -8.533,-1.294 -0.768,-0.417 -1.421,-0.936 -1.881,-1.648 1.634,-0.583 2.302,-0.638 2.621,-0.495 -0.004,-0.009 -0.009,-0.017 -0.013,-0.027 1.583,0.069 2.477,0.322 3.006,0.649 0.147,-0.035 0.302,-0.078 0.464,-0.127 0.337,1.207 0.687,1.688 1.07,1.921 0.616,-0.123 2.197,-0.18 3.266,0.153 -3.567,-3.667 3.464,-1.623 4.335,-3.466 -1.259,-0.469 -4.477,1.015 -4.335,-0.87 3.312,-1.501 5.706,1.48 6.071,-2.604 -2.821,-0.067 -5.337,-0.439 -6.938,-1.729 3.23,-1.457 5.452,1.345 8.671,1.729 -0.071,0 2.206,-0.957 3.47,-0.863 5.476,0.402 9.073,0.957 13.883,-1.732 -3.897,-1.946 -7.693,3.229 -9.542,-1.737 3.473,1.134 5.704,-1.497 7.809,-1.737 1.793,-0.194 3.832,1.718 5.207,0 -7.072,-3.215 -10.485,3.154 -18.217,0 -2.411,1.3 1.501,3.545 -0.873,4.34 -1.335,-1.82 -5.149,-0.316 -1.737,-2.603 -2.689,-0.098 -2.476,2.723 -6.071,1.737 -1.03,-3.635 3.656,-1.554 4.338,-3.474 -3.499,0.911 -1.084,-1.891 -2.601,-2.6 -2.456,-1.161 -5.432,1.383 -9.543,-0.87 4.958,-0.408 5.073,-0.275 8.671,-1.728 -0.423,2.854 5.009,3.627 5.206,0.862 -1.019,-0.134 -2.454,0.145 -2.602,-0.862 1.645,-1.643 5.058,3.047 6.944,-0.87 -1.641,-0.195 -1.916,0.971 -3.469,0.87 -0.719,-3.167 3.531,-1.848 4.334,-2.613 0.539,-0.5 -1.599,-1.701 0,-1.732 4.132,4.019 5.243,-2.395 9.542,0 -0.408,-3.593 4.06,-2.302 6.078,-3.474 0.093,1.06 0.249,2.058 1.733,1.737 1.895,-0.193 4.666,-3.916 6.072,-1.737 -1.493,-0.042 -2.232,0.674 -2.603,1.737 5.89,1.206 9.349,0.248 13.017,-2.596 -2.925,-0.554 -8.061,1.107 -9.547,-0.861 6.04,-1.73 11.493,1.659 15.61,-2.61 -1.54,-0.199 -4.343,0.872 -3.465,-1.737 16.964,-3.271 32.456,-8.029 51.179,-9.541 0.122,-1.154 -3.527,-2.614 -0.866,-3.466 0.51,4.55 16.736,2.369 17.353,1.726 0.529,-0.548 -1.601,-1.675 0,-1.726 0.417,1.024 0.916,1.96 1.737,2.594 3.641,-0.841 8.553,0 11.275,0 0.915,0 2.266,-0.953 2.598,-0.868 0.274,0.078 0.569,3.154 2.607,1.74 -0.325,-2.819 -3.046,-1.764 -4.341,-2.599 -0.712,-0.466 0.276,-1.442 -0.864,-1.737 0.324,0.081 -0.45,1.93 -1.734,1.737 -1.13,-0.181 -0.816,-1.408 -1.738,-1.737 -0.248,1.78 -2.316,1.727 -3.469,2.596 -0.346,-1.49 1.285,-2.226 0,-2.596 -5.827,0.268 -9.276,0.831 -14.748,0.87 -1.514,0.004 -2.802,-1.056 -4.341,-0.87 -1.136,0.132 -1.176,0.915 -2.598,0.87 -1.57,-0.063 -1.997,-1.04 -3.474,-0.87 -0.194,0.02 -2.241,1.644 -2.598,1.737 -4.702,1.134 -9.39,0.122 -13.882,0.859 -1.347,0.223 -2.262,1.423 -3.464,1.74 -1.362,0.354 -2.977,-0.279 -4.342,0 -1.508,0.304 -2.781,2.139 -4.34,2.6 -1.059,0.319 -2.385,-0.237 -3.465,0 -0.329,0.077 -2.148,1.597 -2.607,1.732 -3.165,0.924 -4.953,0.236 -7.806,0.873 -0.983,0.215 -1.936,1.647 -2.607,1.73 -1.581,0.211 -1.958,-0.81 -3.465,-0.862 -0.974,-0.037 -1.345,1.219 -1.743,0 4.085,-1.028 1.64,-2.52 0,-4.34 6.021,0.76 7.418,-3.539 12.146,-1.733 -1.682,-2.899 0.316,-0.471 2.609,-0.872 1.141,-0.196 1.762,-1.495 2.609,-1.727 1.303,-0.374 3.055,0.456 4.329,0 0.233,-0.093 0.58,-1.56 0.866,-1.737 2.863,-1.738 6.429,0.071 8.681,0 1.686,-0.067 4.575,-1.347 6.933,-1.738 6.664,-1.077 11.927,-1.33 17.348,-2.601 -4.85,0.771 -3.23,-0.88 -4.337,-2.601 -3.357,1.293 -12.293,1.548 -15.605,0 8.208,-0.803 22.672,-0.998 32.098,-5.21 -3.633,-0.175 -13.104,0.768 -6.945,-1.74 -2.812,-0.49 -4.367,0.267 -5.211,1.74 0.08,-0.278 -1.942,-2.703 -3.465,-1.74 -0.549,0.36 1.62,1.78 0,1.74 -0.453,-0.012 -1.02,-1.78 -2.601,-1.74 -3.109,0.097 -6.019,3.469 -9.545,1.74 1.024,-0.13 2.466,0.151 2.605,-0.864 -13.085,0.974 -27.078,4.077 -38.174,4.337 1.294,0.143 3.21,-0.31 3.474,0.87 -7.428,-0.484 -13.032,5.461 -19.084,3.468 4.794,-1.569 10.149,-2.577 14.744,-4.338 -1.539,-0.2 -4.341,0.874 -3.475,-1.744 2.293,-1.343 14.177,-3.417 13.887,-0.859 -1.772,-0.744 -4.788,1.367 -2.607,1.731 3.352,-2.389 7.346,-1.699 11.279,-2.601 0.255,-0.055 1.324,-1.651 1.742,-1.74 1.528,-0.299 3.504,0.485 5.196,0 1.181,-0.326 2.507,-2.209 3.475,-2.591 2.853,-1.152 5.105,-0.344 7.804,-0.869 2.11,1.168 0.54,1.73 1.739,2.596 2.185,0.327 3.841,-1.397 6.072,-1.727 3.204,-0.493 7.417,0.892 12.145,0.861 5.945,-0.031 13.393,-1.234 19.08,0 0.473,0.105 -0.149,1.65 0.875,1.73 4.453,0.393 11.931,-1.246 18.208,-0.864 6.654,0.422 9.919,1.131 13.013,-2.596 -13.023,-2.673 -28.546,-2.622 -42.499,-3.468 -4.189,-0.261 -7.877,-1.941 -11.28,-0.871 0.668,0.193 1.711,0.02 1.732,0.871 -3.724,-2.243 -7.081,0.101 -9.542,-2.613 14.648,-0.397 31.336,1.34 48.576,2.613 3.311,0.239 8.84,0.515 13.013,0.862 9.49,0.793 23.184,4.981 31.233,2.606 -0.668,0.194 -1.814,-0.854 -1.731,-0.875 1.798,-0.35 3.082,1.61 4.336,0 -2.217,-0.388 -3.994,-1.219 -5.207,-2.593 3.087,-0.738 5.195,2.512 6.072,-0.871 -4.189,-0.154 -5.92,-2.757 -8.677,-4.333 4.112,0.441 3.464,1.087 1.739,-1.745 2.465,0.152 3.615,1.587 6.073,1.745 0.004,-0.874 -0.705,-1.039 -0.872,-1.745 2.918,-0.092 5.354,2.521 6.937,1.745 0.268,-0.133 -0.906,-1.745 -0.861,-1.745 2.385,-0.117 2.945,0.591 6.074,0.871 -0.049,-1.111 -1.111,-1.202 -0.872,-2.597 3.087,-1.354 0.537,2.943 2.605,2.597 1.797,-0.52 5.701,1.071 6.077,-0.871 -2.462,0.726 -2.257,-1.222 -4.341,-0.864 -1.075,-2.805 2.807,-0.665 1.738,-3.472 -1.416,0.636 -3.781,-1.721 -1.738,-1.73 0.117,1.428 5.958,1.428 6.068,0 -2.395,1.14 -2.969,-3.435 -1.727,-0.869 2.532,-0.232 2.66,1.962 5.2,1.734 -0.263,-1.05 2.509,-2.99 2.604,-0.865 -4.61,1.447 5.132,1.726 7.799,1.73 -1.461,-3.02 -0.314,-3.032 1.744,-4.339 -1.458,-1.198 -5.758,-4.006 -4.34,-5.202 2.639,3.582 11.1,4.478 11.28,7.811 4.613,0.593 6.143,4.268 12.144,3.468 -0.129,-1.029 -1.548,-1.966 0,-2.603 2.452,3.099 6.657,4.422 8.67,6.072 2.438,1.987 4.652,3.785 6.94,5.207 2.138,1.319 2.968,2.295 4.34,3.464 0.958,0.83 2.533,0.9 3.469,1.744 2.216,1.965 4.715,5.512 6.077,6.932 1.204,1.258 2.651,1.692 3.467,2.609 1.028,1.142 1.537,3.021 2.604,4.336 1.097,1.349 2.448,2.133 3.469,3.474 2.935,3.83 5.753,7.853 7.807,11.273 1.937,3.217 3.746,5.798 4.341,9.538 5.252,1.975 9.334,5.125 15.614,6.082 2.17,-8.276 -1.17,-16.69 -1.737,-25.167 -0.074,-1.096 0.953,-1.19 0.867,-2.596 -0.311,-5.148 -1.91,-11.637 -0.867,-16.481 0.275,-1.292 1.549,-2.024 1.737,-3.475 0.339,-2.624 -0.977,-6.168 0.868,-8.675 -0.153,2.397 1.333,2.983 2.598,1.735 -0.723,-1.008 -1.143,-2.328 -0.863,-4.335 4.713,1.328 1.666,-3.967 1.734,-4.334 -0.016,0.04 1.568,-1.457 1.736,-1.737 2.76,-4.769 -1.611,-10.512 -0.875,-16.489 5.301,-0.673 3.116,6.146 4.34,9.542 0.875,0.953 3.731,4.262 1.734,5.215 0.268,-1.056 -2.503,-2.997 -2.6,-0.872 0.418,3.621 2.845,5.256 5.206,6.938 -1.752,0.708 0.544,4.575 0.867,6.072 -3.26,0.662 -0.594,-4.604 -4.34,-3.469 0.11,1.441 -2.808,5.517 0.867,5.208 -0.118,-1.031 -1.539,-1.967 0,-2.61 3.707,2.288 4.096,5.845 4.341,7.811 2.681,-2.395 3.338,-7.361 2.596,-9.537 -0.029,-0.109 -1.722,0.08 -1.73,0 -0.122,-2.078 1.059,-4.102 0.864,-6.072 -0.115,-1.232 -1.447,-1.825 -1.73,-3.469 -0.236,-1.414 0.18,-2.931 0,-4.34 3.402,1.189 2.555,5.423 4.337,7.809 0.553,0.727 1.801,0.772 2.44,1.512 -0.654,-0.643 -0.19,3.526 1.036,2.822 0.54,-1.482 2.619,-1.435 3.464,-2.602 -0.518,-1.302 -4.361,-3.622 -2.598,-4.337 1.293,1.019 2.446,2.177 3.465,3.468 0.994,-2.722 -1.361,-2.111 -1.731,-3.468 2.639,-2.72 3.741,5.004 6.938,1.728 0.254,5.533 2.76,8.813 7.815,9.546 0.95,2.517 1.068,5.865 4.328,6.078 -0.141,-2.238 -3.678,-5.496 -1.731,-6.949 1.457,3.077 3.108,6.058 4.34,8.673 0.451,0.971 1.55,1.619 1.734,2.613 0.029,0.177 -1.392,0.636 -0.867,1.727 0.179,0.381 1.376,1.187 1.733,1.74 1.742,2.691 2.514,5.635 5.201,6.941 1.165,-6.397 -2.908,-12.108 -1.738,-15.616 2.569,2.634 1.683,8.737 4.341,11.268 2.604,-7.015 -2.76,-14.87 -1.733,-19.944 1.977,3.514 1.354,7.327 2.601,11.271 0.628,2.001 2.677,3.962 3.466,6.08 0.963,2.569 0.164,3.664 0.873,5.207 1.028,2.222 3.046,5.18 3.47,6.934 0.318,1.367 -0.344,2.984 0,4.337 0.087,0.344 1.624,2.125 1.732,2.605 0.564,2.489 0.086,5.312 0.871,7.808 0.08,0.242 1.63,0.514 1.732,0.867 0.967,3.554 0.274,5.118 0.865,7.808 1.376,6.149 4.58,11.426 5.208,17.353 2.464,0.728 5.263,1.64 6.071,0.865 0.713,-0.676 0.795,-0.259 1.738,-0.865 0.77,-0.497 2.17,-2.359 2.601,-2.604 1.489,-0.855 3.608,-0.775 5.21,-1.74 1.37,-0.822 2.438,-2.992 3.467,-3.466 2.307,-1.056 5.462,-0.841 7.802,-1.734 4.206,-1.598 6.715,-4.615 10.414,-3.468 -2.459,1.298 -4.011,3.503 -7.808,3.468 -3.014,3.193 -5.899,6.581 -9.543,9.544 -0.787,0.631 -3.181,0.819 -4.332,1.729 -1.275,1.004 -2.466,2.685 -2.611,4.336 3.242,-0.556 4.258,-3.828 7.813,-1.731 1.022,-1.636 4.498,-5.265 6.067,-3.469 -1.449,1.407 -3.994,2.62 -6.067,4.337 -1.975,1.629 -5,3.422 -4.336,5.199 2.811,-2.409 7.398,-7.606 10.403,-6.932 -3.128,0.945 -1.54,2.615 -2.601,3.464 0.528,-0.415 -1.984,-0.818 -1.732,0.872 4.872,-0.15 -3.013,2.933 0,3.468 1.02,-0.127 1.968,-1.543 2.6,0 -0.915,0.691 -2.397,0.818 -3.092,1.723 h 1.77 c 0.29,-0.433 0.601,-0.846 1.322,-0.852 0.089,0.305 0.127,0.584 0.146,0.852 h 1.484 c -0.524,0.506 -1.071,0.833 -1.619,1.087 -0.045,0.138 -0.092,0.276 -0.158,0.404 h -0.802 c -0.954,0.372 -1.843,0.713 -2.514,1.645 0.293,1.686 -0.145,8.125 -3.471,6.072 1.42,0.63 3.769,-1.722 1.73,-1.733 -2.606,1.101 -2.984,3.478 -1.73,5.207 1.294,-1.884 4.34,-2.024 4.334,-5.207 4.815,1.05 5.269,-2.252 7.807,-3.469 -0.775,4.137 -4.995,4.832 -6.94,7.805 1.151,2.124 3.231,-0.952 3.466,0.871 -1.04,0.845 -2.091,1.678 -3.141,2.513 H 79.262 c -3.094,-3.974 -9.362,-4.081 -14.011,-7.72"
           style="fill:#23642f;fill-opacity:1;fill-rule:nonzero;stroke:none"
           id="path101864"
           inkscape:connector-curvature="0" /><path
           d="m 221.897,320.46 1.937,-5.96 h 6.267 l -5.07,-3.684 1.936,-5.961 -5.07,3.685 -5.07,-3.685 1.937,5.961 -5.07,3.684 h 6.266 z m 6.472,24.151 1.936,-5.96 h 6.267 l -5.07,-3.683 1.936,-5.96 -5.069,3.683 -5.071,-3.683 1.937,5.96 -5.07,3.683 h 6.267 z m 17.68,17.681 1.936,-5.96 h 6.267 l -5.069,-3.684 1.936,-5.96 -5.07,3.684 -5.07,-3.684 1.936,5.96 -5.07,3.684 h 6.267 z m 22.53,-49.294 v 10.36 c -0.046,1.489 -0.856,2.848 -2.143,3.596 -2.059,1.197 -4.699,0.499 -5.896,-1.56 -0.69,2.081 -0.69,4.328 0,6.409 1.77,5.335 7.529,8.225 12.865,6.456 5.335,-1.77 8.226,-7.53 6.456,-12.865 -0.748,1.287 -2.108,2.097 -3.596,2.143 -2.38,0.072 -4.37,-1.798 -4.443,-4.179 v -10.36 c 0.648,-7.212 7.019,-12.533 14.231,-11.886 2.917,0.263 5.661,1.493 7.797,3.496 2.786,-6.992 10.713,-10.402 17.705,-7.617 1.029,0.41 2.005,0.945 2.905,1.591 -1.259,-12.568 -20.098,-10.002 -21.502,2.218 -5.917,-10.388 -18.928,-7.415 -22.739,5.306 h -0.037 c -3.811,-12.721 -16.822,-15.694 -22.739,-5.306 -1.403,-12.22 -20.243,-14.786 -21.502,-2.218 0.9,-0.646 1.876,-1.181 2.905,-1.591 6.993,-2.785 14.92,0.625 17.705,7.617 2.136,-2.003 4.881,-3.233 7.797,-3.496 7.212,-0.647 13.583,4.674 14.231,11.886 m 1.622,55.766 1.936,-5.961 h 6.267 l -5.07,-3.684 1.937,-5.96 -5.07,3.684 -5.071,-3.684 1.937,5.96 -5.07,3.684 h 6.267 z m 24.151,-6.472 1.937,-5.96 h 6.267 l -5.07,-3.684 1.936,-5.96 -5.07,3.684 -5.07,-3.684 1.936,5.96 -5.069,3.684 h 6.267 z m 17.68,-17.681 1.937,-5.96 h 6.267 l -5.07,-3.683 1.937,-5.96 -5.071,3.683 -5.069,-3.683 1.935,5.96 -5.069,3.683 h 6.267 z m 11.542,-39.756 -5.07,3.685 -5.07,-3.685 1.937,5.961 -5.07,3.684 h 6.265 l 1.938,5.96 1.936,-5.96 h 6.267 l -5.07,-3.684 z m -39.099,-14.196 c 0,0 2.169,0.643 4.157,0.348 0.156,1.614 1.577,3.437 2.972,4.211 0.817,-1.089 1.808,-3.05 1.611,-4.872 2.739,-0.551 3.74,-1.737 3.74,-1.737 -4.311,-4.529 -9.6,-3.764 -12.48,2.05 m -20.56,0.654 c 0,0 2.035,0.989 4.044,1.021 -0.108,1.617 0.998,3.647 2.247,4.638 0.984,-0.941 2.281,-2.715 2.383,-4.545 2.792,-0.097 3.974,-1.104 3.974,-1.104 -3.518,-5.171 -8.86,-5.276 -12.648,-0.01 m -7.916,-0.632 v 0 c -2.628,-5.674 -7.882,-6.649 -12.477,-2.069 0,0 1.847,1.306 3.825,1.665 -0.371,1.578 0.389,3.762 1.461,4.943 1.124,-0.769 2.692,-2.308 3.092,-4.097 2.768,0.357 4.097,-0.441 4.099,-0.442 M 77.392,372.887 c 0.031,-0.235 1.596,-1.035 1.736,-1.744 -0.008,0.046 -1.135,-1.383 -0.869,-2.596 1.382,-6.199 2.256,-14.606 1.737,-22.56 -1.641,0.101 -0.607,2.867 -2.604,2.604 -0.015,-3.9 3.215,-6.29 0,-8.677 2.888,0.601 1.392,-1.788 0.867,-2.597 5.212,-0.396 1.98,-2.133 1.737,-5.209 3.311,-1.882 2.719,0.8 4.335,2.61 0.596,-5.599 -0.566,-10.026 2.608,-10.418 -3.561,-2.491 -0.322,-8.525 0,-13.003 0.046,-0.803 -0.866,-1.607 -0.871,-1.74 -0.051,-2.084 2.517,-5.253 0,-6.074 -0.881,3.557 -1.523,7.505 -1.737,9.543 -0.438,4.206 0.738,10.62 -3.47,11.274 0.581,-10.119 2.488,-23.529 1.737,-32.096 0.047,1.626 -0.667,1.839 -1.737,0.874 0.052,1.107 1.111,1.195 0.873,2.599 -2.37,0.077 -1.754,-1.448 -3.475,0 1.655,-4.065 0.412,-7.91 0.869,-12.148 0.329,-3.062 2.262,-7.055 1.733,-9.539 -0.313,-1.468 -0.868,-2.62 -1.599,-3.558 h 410.516 c -2.813,2.237 -5.612,4.49 -8.128,7.022 4.756,1.292 3.8,-3.133 6.936,-3.464 2.312,-0.1 -2.393,3.402 -0.863,3.464 1.099,0.051 2.974,-6.147 6.06,-3.464 -4.187,2.452 -6.031,7.261 -9.531,10.404 1.015,0.999 3.066,0.988 5.201,0.872 -0.781,-2.613 2.043,-1.452 3.466,-2.609 2.257,-1.809 3.993,-6.334 6.081,-5.203 -3.545,3.166 -7.504,7.842 -11.277,9.539 -0.862,0.398 -2.989,2.964 -3.471,3.478 -1.008,1.055 -1.188,2.84 -2.602,3.471 3.092,0.444 5.276,-4.489 6.936,-2.604 -0.742,1.07 -5.588,2.399 -3.469,3.469 1.89,-1.037 5.045,-5.313 6.936,-3.469 -1.682,-0.104 -2.574,1.854 -3.467,2.604 -1.109,0.92 -3.631,1.437 -3.469,3.468 2.93,1.387 3.697,-3.681 5.201,-0.87 -3.084,1.258 -5.16,3.517 -6.935,6.077 2.015,0.287 3.738,0.886 4.34,2.599 -3.608,0.158 -4.775,-1.5 -6.948,0.871 -0.629,1.736 1.668,1.682 1.741,2.603 -0.023,-0.228 -1.657,0.478 -1.741,0.867 -0.33,1.594 1.388,3.952 1.741,6.067 -3.432,-1.145 -1.317,9.021 -0.866,9.553 0.489,0.571 2.856,-0.5 2.602,0.858 -1.49,-0.051 -2.225,0.674 -2.602,1.734 3.293,3.638 -0.197,14.075 6.073,14.752 -0.96,4.719 1.828,5.682 3.463,7.802 -1.493,0.347 -2.221,-1.283 -2.6,0 5.234,2.364 11.537,-1.295 15.613,2.602 -5.677,0.471 -9.877,-0.528 -14.746,-0.866 -1.48,1.738 -1.265,7.036 0.865,7.815 7.282,-0.153 11.745,2.159 17.354,2.6 5.069,0.392 9.599,-0.748 11.278,1.737 -6.386,0.673 -8.516,-2.137 -13.012,0 1.632,0.452 7.059,1.517 5.199,2.6 -1.019,-0.131 -1.966,-1.54 -2.601,0 -0.192,3.127 8.398,1.96 6.076,4.332 -3.69,-0.194 -11.886,-1.765 -18.219,0 2.798,0.018 3.561,1.649 3.1,2.795 H 77.464 c -0.076,-0.366 -0.113,-0.721 -0.072,-1.051"
           style="fill:#ffffff;fill-opacity:1;fill-rule:nonzero;stroke:none"
           id="path101866"
           inkscape:connector-curvature="0" /><path
           d="m 498.326,399.539 c -3.757,-0.41 -7.477,-0.709 -10.531,0 z m -38.369,69.335 c -6.603,3.008 -13.492,1.217 -20.816,0.871 -24.229,-1.126 -50.717,0.489 -72.871,1.736 6.941,0.571 16.179,-1.149 21.685,0.873 -1.517,0.789 -4.325,0.29 -5.201,1.727 5.445,2.945 16.277,0.494 22.55,2.604 -2.95,1.181 -6.4,0.009 -7.807,0 -1.784,-0.01 -4.577,0.599 -6.069,0.865 -14.34,2.569 -28.289,2.603 -44.244,2.603 -6.899,0 -14.459,0.688 -20.817,0 -2.506,-0.269 -5.256,-1.527 -7.814,-1.732 -6.028,-0.489 -12.278,0.658 -18.217,0 -3.635,-0.406 -6.696,-2.196 -10.4,-2.598 -7.971,-0.873 -16.41,0.182 -24.3,-0.878 -1.849,-0.238 -3.348,-1.405 -5.201,-1.731 -3.49,-0.607 -7.794,0.163 -9.549,0 -2.842,-0.253 -5.949,-1.503 -8.669,-1.733 -4.852,-0.411 -10.007,0.449 -14.744,0 -3.984,-0.381 -8.662,-2.062 -13.023,-2.607 -10.861,-1.346 -21.815,-4.973 -30.352,-4.329 -0.154,-4.816 -7.266,0.772 -6.945,-0.867 0.535,-0.052 1.034,-0.139 0.871,-0.869 -0.229,-1.226 -1.905,-0.993 -2.603,-1.736 -4.081,-0.504 -6.123,-0.932 -8.676,-1.736 -2.75,-0.864 -6.306,-2.807 -7.81,-3.468 -2.307,-1.019 -5.243,-1.652 -7.798,-2.609 -5.208,-1.942 -10.373,-4.662 -14.754,-6.072 -2.248,-0.719 -6.023,-3.674 -7.806,0 0.535,2.647 4.666,1.699 5.207,4.339 -2.628,-0.209 -6.327,-4.789 -7.814,-0.867 0.6,1.717 5.176,-0.538 4.34,2.6 -3.414,0.988 -6.027,-2.614 -6.94,0.872 0.276,2.036 2.686,1.938 3.475,3.472 -4.595,-1.028 -3.923,-2.145 -6.083,0.869 -2.15,3.006 -3.903,8.108 -6.938,6.072 1.913,-0.746 3.541,-6.236 1.742,-7.807 -1.783,3.714 -3.129,7.853 -6.939,9.538 -0.265,-1.702 1.166,-1.722 1.733,-2.598 0.703,-1.102 1.146,-3.165 1.731,-4.341 1.55,-3.103 6.216,-8.494 4.341,-11.278 -0.387,4.37 -2.854,5.546 -4.341,7.81 -1.921,2.912 -2.307,6.703 -5.201,8.676 2.215,-5.529 3.633,-8.499 6.067,-13.885 -0.146,0.337 0.541,1.008 0.867,0 0.092,-0.269 1.752,-3.332 1.742,-4.34 -0.01,-0.602 -1.015,-1.369 -0.877,-1.737 0.877,-2.241 5.798,-3.43 2.609,-6.067 -1.956,0.36 0.133,4.755 -2.609,4.339 -0.763,-2.585 2.709,-5.288 0.877,-6.076 -1.763,2.871 -2.221,7.034 -5.206,8.676 -1.193,-1.977 2.236,-3.267 0,-3.472 -1.998,3.674 -3.293,8.229 -5.202,12.149 -0.75,1.527 -1.198,3.385 -1.737,4.341 -2.843,4.97 0.752,-5.177 -0.873,-6.081 1.249,-1.914 2.116,1.091 2.61,-0.865 -0.26,-2.339 3.622,-4.956 0.864,-6.944 0.053,1.876 -1.023,6.974 -2.601,4.341 2.771,-0.653 -0.908,-6.413 0.866,-6.069 0,0.481 0.698,0.986 0.871,0 -0.148,-2.581 2.007,-5.813 0.864,-9.548 -1.088,3.677 -2.622,9.096 -5.205,8.676 -0.592,2.306 -1.37,4.424 -2.603,6.076 -2.986,-2.501 2.781,-6.533 0,-8.672 0.5,2.989 -2.864,5.176 -4.335,7.801 -0.887,1.594 -1.004,3.901 -1.739,5.204 -0.548,0.99 -2.14,1.809 -2.602,2.609 0.411,-0.719 0.964,3.184 -0.866,0.868 2.479,-1.01 -1.401,-1.01 -1.733,0 -0.779,-2.881 4.815,-3.766 2.599,-5.209 0.061,2.137 -2.022,1.33 -3.47,2.6 -2.476,2.184 -4.422,7.102 -6.94,6.077 2.945,-3.413 6.726,-5.997 7.811,-11.278 -1.818,0.244 -1.971,2.774 -2.608,3.468 -1.595,1.762 -1.441,1.019 -3.47,1.733 -0.081,-3.836 4.74,-2.778 4.342,-6.94 0.258,-1.998 -2.507,-0.958 -2.605,-2.596 1.107,-1.27 3.913,-5.259 2.605,-6.074 -2.39,1.655 -5.177,2.928 -6.075,6.074 -4.868,0.15 3.018,-2.926 0,-3.477 -0.008,0.877 -1.522,1.097 -1.736,0 2.614,-2.603 7.882,-7.132 6.079,-11.268 -0.571,2.904 -3.324,3.618 -4.343,6.068 0.572,-5.802 5.04,-12.289 3.47,-17.352 -1.141,3.403 -1.727,9.302 -4.339,8.68 0.241,1.106 0.869,1.198 0.869,2.604 0,4.962 -1.181,-1.993 -0.869,-1.737 -0.653,-0.546 -4.204,3.493 -4.336,2.598 0.112,-3.105 4.861,-6.08 1.732,-9.541 0.173,2.484 0.112,4.726 -2.598,4.34 -1.064,-2.1 2.057,-1.816 1.733,-3.47 -0.057,-0.302 -2.101,-0.902 -1.733,-1.743 0.228,-0.51 3.179,-0.244 2.598,-1.731 -1.799,-0.484 -1.835,-1.355 -0.865,-2.605 -1.055,0.275 -2.987,-2.507 -0.867,-2.602 0.194,0.678 0.021,1.718 0.867,1.738 0.498,-2.809 -0.262,-4.365 -1.733,-5.207 1.058,-2.661 1.845,-6.174 2.43,-9.48 h 1.033 c -0.019,-1.552 -1.044,-4.364 -0.865,-5.843 0.306,-2.394 1.865,-4.594 1.737,-6.931 -0.051,-1.05 -1.82,-0.903 -1.737,-1.745 0.011,-0.063 1.599,0.073 1.737,0 1.89,-0.845 -0.851,-2.005 -0.865,-1.73 0.107,-1.748 1.543,-3.689 1.732,-6.066 0.073,-0.899 -0.557,-2.144 -0.795,-3.286 h 422.029 c -0.104,0.261 -0.271,0.497 -0.493,0.682 0.368,-1.437 -3.239,0.075 -3.475,0.862 1.296,0.16 3.202,-0.307 3.475,0.87 -2.729,-0.413 -3.545,1.079 -4.338,2.602 1.416,-0.632 3.767,1.724 1.731,1.728 0.378,-1.432 -3.237,0.08 -3.474,0.874 2.26,0.374 6.671,-0.115 9.547,1.734 5.303,1.594 -5.3,-0.163 -5.206,1.73 2.81,-0.493 4.038,0.6 6.073,0.872 5.848,-0.286 1.933,1.544 -1.734,0.873 -3.911,-1.322 -13.482,-1.54 -17.347,0 5.293,1.62 13.751,0.757 17.347,1.726 -7.302,1.438 4.108,0.703 3.465,3.474 -2.073,2.686 -4.594,-0.87 -6.938,-0.866 -2.971,0.005 -5.615,2.022 -8.673,2.597 4.77,0.154 10.098,-0.261 12.146,2.61 -0.173,2.715 -5.063,0.722 -6.074,2.598 4.933,0.564 12.127,-1.141 15.612,0.877 -1.85,0.479 -4.018,0.518 -6.324,0.384 0.083,0.064 0.173,0.114 0.251,0.184 h -2.598 c 2.311,2.234 -1.996,0.911 -0.867,4.334 1.721,-0.008 1.101,-2.364 3.465,-1.734 0.386,3.278 -4.524,1.251 -5.199,3.472 3.415,-0.242 6.024,0.331 6.941,2.598 -3.005,0.468 -8.234,-1.29 -8.68,1.737 6.561,0.384 11.374,2.505 15.62,5.202 -2.305,-1.031 -4.821,0.162 -7.808,0 -9.009,-0.48 -21.012,-2.956 -24.288,3.468 1.661,0.719 8.619,0.561 6.936,1.743 -5.316,1.238 -10.365,-2.328 -13.881,0 3.551,-1.048 6.339,1.833 9.547,2.603 1.81,0.429 3.287,-0.323 5.201,0 1.276,0.208 3.093,1.468 4.33,1.734 2.03,0.422 5.925,-1.669 6.082,1.736 -7.1,-2.434 -14.085,0.51 -20.826,0.865 -2.658,0.139 -5.734,-1.212 -8.668,-0.865 -1.697,0.194 -3.726,0.779 -5.207,1.737 -1.723,1.998 0.217,0.953 0.866,2.597 -3.915,-0.168 -10.421,-2.278 -13.878,0 4.497,1.417 8.976,-1.048 13.012,1.731 -2.74,1.852 -8.164,-2.912 -4.342,1.74 -2.912,0.541 -8.054,-1.115 -9.543,0.871 1.448,0.096 7.864,-0.48 5.207,0.861 -3.795,0.54 -6.937,1.737 -10.414,2.608 3.446,0.599 9.616,-1.515 10.414,1.727 -5.048,0.157 -9.589,-1.62 -13.882,0 2.626,1.148 7.439,0.091 9.548,1.741 -1.541,0.194 -4.345,-0.881 -3.47,1.728 2.898,-0.207 5.466,-1.859 6.94,0.872 -2.95,2.109 -6.112,-1.071 -8.677,1.733 2.761,1.292 8.09,0.008 10.409,1.736 -2.725,-0.994 -2.107,1.371 -3.469,1.736 -1.438,-1.517 -3.72,0.607 -6.072,0.867 -1.061,0.118 -1.225,-0.947 -2.601,-0.867 -4.311,0.256 -8.243,1.591 -10.413,1.732 0.653,1.963 4.859,0.343 6.939,0.868 1.217,-0.067 3.323,0.191 1.738,0.872 -1.443,-0.008 -2.896,0 -4.335,0 -0.876,0.681 -2.172,0.537 -3.475,2.606 4.039,0.938 7.163,-1.513 8.676,0 0.142,0.129 -7.041,1.739 -7.801,0.866 -1.116,0.046 -1.203,1.106 -2.609,0.869 -2.26,-2.128 -1.914,0.177 -2.597,0.864 -1.839,1.834 -8.976,-1.904 -8.683,1.736 5.164,0.042 11.119,-0.711 13.014,2.605 1.771,-0.79 5.694,-1.742 6.938,0.867 -2.862,-1.228 -2.162,1.766 -3.463,1.731 0.314,0.01 -1.122,-3.317 -3.475,-1.731 0.721,2.781 0.743,1.792 -0.867,3.468 9.18,0.2 19.389,-0.475 25.158,0.861"
           style="fill:#cd1e25;fill-opacity:1;fill-rule:nonzero;stroke:none"
           id="path101868"
           inkscape:connector-curvature="0" /><path
           d="m 262.852,329.896 c 0.452,3.295 3.044,5.887 6.339,6.339 4.059,0.558 7.801,-2.28 8.358,-6.339 -2.903,0.594 -5.86,-0.732 -7.348,-3.294 -1.489,2.562 -4.446,3.888 -7.349,3.294 m 7.33,-23.79 h 0.037 c 0,0.003 -10e-4,0.005 -0.002,0.007 l 1.605,6.885 v 10.36 c 0.073,2.381 2.063,4.251 4.443,4.179 1.488,-0.046 2.848,-0.856 3.596,-2.143 1.77,5.335 -1.121,11.095 -6.456,12.865 -5.336,1.769 -11.095,-1.121 -12.865,-6.456 -0.69,-2.081 -0.69,-4.328 0,-6.409 1.197,2.059 3.837,2.757 5.896,1.56 1.287,-0.748 2.097,-2.107 2.143,-3.596 v -10.36 l 1.605,-6.885 c -0.001,-0.002 -0.002,-0.004 -0.002,-0.007"
           style="fill:#f4c00a;fill-opacity:1;fill-rule:nonzero;stroke:none"
           id="path101870"
           inkscape:connector-curvature="0" /><path
           d="m 277.549,329.896 c -0.557,4.059 -4.299,6.897 -8.358,6.339 -3.295,-0.452 -5.887,-3.044 -6.339,-6.339 2.903,0.594 5.86,-0.732 7.349,-3.294 1.488,2.562 4.445,3.888 7.348,3.294"
           style="fill:#ffffff;fill-opacity:1;fill-rule:nonzero;stroke:none"
           id="path101872"
           inkscape:connector-curvature="0" /><path
           d="m 228.846,296.991 c -1.029,0.41 -2.005,0.945 -2.905,1.591 1.259,-12.568 20.099,-10.002 21.502,2.218 5.917,-10.388 18.928,-7.415 22.739,5.306 0,0.003 10e-4,0.005 0.002,0.007 l -1.605,6.885 c -0.648,-7.212 -7.019,-12.533 -14.231,-11.886 -2.916,0.263 -5.661,1.493 -7.797,3.496 -2.785,-6.992 -10.712,-10.402 -17.705,-7.617"
           style="fill:#f4c00a;fill-opacity:1;fill-rule:nonzero;stroke:none"
           id="path101874"
           inkscape:connector-curvature="0" /><path
           d="m 270.219,306.106 c 3.811,-12.721 16.822,-15.694 22.739,-5.306 1.404,-12.22 20.243,-14.786 21.502,-2.218 -0.9,-0.646 -1.876,-1.181 -2.905,-1.591 -6.992,-2.785 -14.919,0.625 -17.705,7.617 -2.136,-2.003 -4.88,-3.233 -7.797,-3.496 -7.212,-0.647 -13.583,4.674 -14.231,11.886 l -1.605,-6.885 c 0.001,-0.002 0.002,-0.004 0.002,-0.007"
           style="fill:#f4c00a;fill-opacity:1;fill-rule:nonzero;stroke:none"
           id="path101876"
           inkscape:connector-curvature="0" /><path
           d="M 255.999,290.681 Z"
           style="fill:#f4c00a;fill-opacity:1;fill-rule:nonzero;stroke:none"
           id="path101878"
           inkscape:connector-curvature="0" /><path
           d="m 251.9,291.123 c -0.4,1.789 -1.968,3.328 -3.092,4.097 -1.072,-1.181 -1.832,-3.365 -1.461,-4.943 -1.978,-0.359 -3.825,-1.665 -3.825,-1.665 4.595,-4.58 9.849,-3.605 12.477,2.069 -0.002,0.001 -1.331,0.799 -4.099,0.442"
           style="fill:#f4c00a;fill-opacity:1;fill-rule:nonzero;stroke:none"
           id="path101880"
           inkscape:connector-curvature="0" /><path
           d="m 270.206,296.972 c -1.249,-0.991 -2.355,-3.021 -2.247,-4.638 -2.009,-0.032 -4.044,-1.021 -4.044,-1.021 3.788,-5.266 9.13,-5.161 12.648,0.01 0,0 -1.182,1.007 -3.974,1.104 -0.102,1.83 -1.399,3.604 -2.383,4.545"
           style="fill:#f4c00a;fill-opacity:1;fill-rule:nonzero;stroke:none"
           id="path101882"
           inkscape:connector-curvature="0" /><path
           d="m 293.215,290.346 c 0.197,1.822 -0.794,3.783 -1.611,4.872 -1.395,-0.774 -2.816,-2.597 -2.972,-4.211 -1.988,0.295 -4.157,-0.348 -4.157,-0.348 2.88,-5.814 8.169,-6.579 12.48,-2.05 0,0 -1.001,1.186 -3.74,1.737"
           style="fill:#f4c00a;fill-opacity:1;fill-rule:nonzero;stroke:none"
           id="path101884"
           inkscape:connector-curvature="0" /><path
           d="m 267.067,359.119 -1.937,-5.96 5.071,3.684 5.07,-3.684 -1.937,5.96 5.07,3.684 h -6.267 l -1.936,5.961 -1.937,-5.961 h -6.267 z"
           style="fill:#f4c00a;fill-opacity:1;fill-rule:nonzero;stroke:none"
           id="path101886"
           inkscape:connector-curvature="0" /><path
           d="m 242.915,352.648 -1.936,-5.96 5.07,3.684 5.07,-3.684 -1.936,5.96 5.069,3.684 h -6.267 l -1.936,5.96 -1.937,-5.96 h -6.267 z"
           style="fill:#f4c00a;fill-opacity:1;fill-rule:nonzero;stroke:none"
           id="path101888"
           inkscape:connector-curvature="0" /><path
           d="m 225.235,334.968 -1.937,-5.96 5.071,3.683 5.069,-3.683 -1.936,5.96 5.07,3.683 h -6.267 l -1.936,5.96 -1.937,-5.96 h -6.267 z"
           style="fill:#f4c00a;fill-opacity:1;fill-rule:nonzero;stroke:none"
           id="path101890"
           inkscape:connector-curvature="0" /><path
           d="m 218.764,310.816 -1.937,-5.961 5.07,3.685 5.07,-3.685 -1.936,5.961 5.07,3.684 h -6.267 l -1.937,5.96 -1.937,-5.96 h -6.266 z"
           style="fill:#f4c00a;fill-opacity:1;fill-rule:nonzero;stroke:none"
           id="path101892"
           inkscape:connector-curvature="0" /><path
           d="m 291.218,352.648 -1.936,-5.96 5.07,3.684 5.07,-3.684 -1.936,5.96 5.07,3.684 h -6.267 l -1.937,5.96 -1.936,-5.96 h -6.267 z"
           style="fill:#f4c00a;fill-opacity:1;fill-rule:nonzero;stroke:none"
           id="path101894"
           inkscape:connector-curvature="0" /><path
           d="m 308.898,334.968 -1.935,-5.96 5.069,3.683 5.071,-3.683 -1.937,5.96 5.07,3.683 h -6.267 l -1.937,5.96 -1.936,-5.96 h -6.267 z"
           style="fill:#f4c00a;fill-opacity:1;fill-rule:nonzero;stroke:none"
           id="path101896"
           inkscape:connector-curvature="0" /><path
           d="m 320.44,314.5 -1.936,5.96 -1.938,-5.96 h -6.265 l 5.07,-3.684 -1.937,-5.961 5.07,3.685 5.07,-3.685 -1.937,5.961 5.07,3.684 z"
           style="fill:#f4c00a;fill-opacity:1;fill-rule:nonzero;stroke:none"
           id="path101898"
           inkscape:connector-curvature="0" /></g></g></g></svg>