<?xml version="1.0" standalone="no"?>
<!DOCTYPE svg PUBLIC "-//W3C//DTD SVG 20010904//EN"
 "http://www.w3.org/TR/2001/REC-SVG-20010904/DTD/svg10.dtd">
<svg version="1.0" xmlns="http://www.w3.org/2000/svg"
 width="300.000000pt" height="98.000000pt" viewBox="0 0 300.000000 98.000000"
 preserveAspectRatio="xMidYMid meet">
<metadata>
Created by potrace 1.10, written by Peter Selinger 2001-2011
</metadata>
<g transform="translate(0.000000,98.000000) scale(0.100000,-0.100000)"
fill="#0000ff" stroke="none">
<path d="M505 973 c-59 -5 -192 -33 -239 -49 -22 -8 -51 -25 -64 -37 -33 -29
-120 -139 -165 -207 -42 -62 -38 -70 34 -70 44 0 46 -1 68 -47 13 -27 25 -61
27 -78 6 -50 64 -112 64 -68 0 10 -11 36 -24 58 -14 22 -36 61 -49 86 l-25 46
129 5 c82 3 133 9 143 17 20 17 55 81 110 200 53 116 64 152 45 149 -8 -1 -32
-3 -54 -5z m10 -52 c-9 -41 -109 -244 -129 -260 -9 -8 -49 -16 -92 -19 -73 -5
-74 -4 -71 18 2 12 17 34 33 49 29 25 64 70 64 81 0 3 -43 -37 -97 -87 -53
-51 -99 -90 -102 -87 -3 2 38 48 90 100 111 113 106 122 -8 14 -51 -48 -89
-76 -106 -78 -15 -1 -27 2 -27 7 0 12 83 123 130 174 42 46 83 65 192 87 50
11 93 21 96 24 3 4 12 6 19 6 11 0 13 -8 8 -29z"/>
<path d="M490 720 c-18 -38 -43 -81 -56 -97 -21 -27 -25 -28 -137 -31 -105 -4
-115 -6 -114 -22 1 -10 4 -17 8 -14 4 2 20 -19 35 -46 25 -46 31 -51 53 -45
55 13 264 145 300 189 12 14 10 23 -13 65 -32 60 -32 63 0 51 14 -6 115 -10
225 -10 l199 0 0 -209 c0 -193 -1 -210 -17 -210 -319 4 -648 -3 -660 -13 -10
-8 -17 -8 -25 0 -7 7 -21 12 -32 12 -19 0 -19 1 2 23 25 27 28 59 7 77 -12 10
-13 6 -8 -24 7 -44 -14 -57 -52 -32 l-25 16 0 -133 c0 -74 -3 -163 -6 -198 -3
-42 -2 -59 4 -49 5 8 15 77 22 153 l13 137 38 0 c36 0 38 -1 34 -27 -6 -32
-35 -263 -35 -275 0 -4 6 -8 14 -8 15 0 20 24 31 140 7 79 13 90 41 80 19 -8
20 -13 13 -77 -5 -37 -11 -85 -15 -106 -5 -30 -3 -37 10 -37 9 0 16 3 16 8 0
4 7 54 15 112 20 148 22 139 -27 133 -40 -6 -41 -5 -35 18 4 13 7 27 7 32 0 4
102 7 226 7 202 0 225 -2 220 -16 -3 -9 -6 -21 -6 -28 0 -10 -17 -13 -57 -12
l-58 1 -3 -37 -3 -38 46 0 c39 0 46 -3 41 -16 -3 -9 -6 -20 -6 -25 0 -5 -20
-9 -45 -9 -36 0 -45 -3 -45 -17 0 -10 -3 -28 -6 -40 -6 -22 -5 -23 56 -16 l63
6 -6 -31 c-5 -24 -3 -32 8 -32 19 0 20 47 1 66 -8 8 -24 14 -35 14 -11 0 -23
4 -26 10 -3 5 2 10 13 10 23 0 52 30 52 55 0 10 -10 29 -21 41 l-21 23 33 9
c19 5 38 5 44 1 5 -5 16 -9 25 -9 15 0 16 -7 9 -53 -15 -108 -16 -167 -2 -167
7 0 13 4 13 8 0 4 7 62 15 127 8 66 15 121 15 123 0 1 -18 -1 -40 -4 -32 -5
-40 -4 -40 9 0 44 7 47 126 47 l114 0 0 240 0 241 -248 -1 -249 -1 -33 -69z
m62 -35 c4 -17 1 -25 -9 -25 -8 0 -11 -4 -8 -10 3 -5 0 -10 -9 -10 -8 0 -16
-5 -18 -12 -2 -6 -9 -8 -16 -4 -8 5 -5 18 9 46 24 46 44 51 51 15z m-180 -137
c5 -15 -73 -57 -87 -47 -5 4 -14 7 -19 6 -5 -1 -10 10 -10 26 -2 26 0 27 55
27 36 0 59 -5 61 -12z"/>
<path d="M1120 788 c-1 -2 -2 -69 -3 -151 l-2 -147 28 0 27 0 0 150 0 150 -25
0 c-14 0 -25 -1 -25 -2z"/>
<path d="M1210 763 c0 -21 5 -23 46 -23 l46 0 -4 -125 -3 -125 28 0 27 0 0
125 0 125 45 0 c40 0 45 2 45 23 0 22 -2 22 -115 22 -113 0 -115 0 -115 -22z"/>
<path d="M1560 638 l0 -148 95 0 c95 0 95 0 95 25 0 24 -2 25 -67 25 l-68 0 0
40 -1 40 53 0 c46 0 53 3 53 20 0 17 -7 20 -53 20 l-53 0 1 40 0 40 68 0 c65
0 68 1 65 23 -3 21 -7 22 -95 23 l-93 0 0 -148z"/>
<path d="M1774 775 c3 -9 23 -41 45 -73 l39 -58 -49 -77 -49 -77 29 0 c25 0
35 9 67 61 41 68 36 69 86 -15 23 -39 32 -46 58 -46 22 0 29 4 24 13 -4 6 -27
42 -50 78 l-41 65 48 70 c27 38 49 70 49 72 0 1 -13 2 -29 2 -26 0 -35 -9 -67
-60 l-37 -61 -34 61 c-30 53 -38 60 -65 60 -23 0 -29 -4 -24 -15z"/>
<path d="M2060 639 l0 -149 30 0 c30 0 30 1 30 55 l0 55 41 0 c71 0 108 31
109 93 0 44 -34 86 -72 88 -13 1 -49 3 -80 4 l-58 3 0 -149z m150 82 c24 -45
-1 -81 -56 -81 l-34 0 0 50 0 50 40 0 c29 0 42 -5 50 -19z"/>
<path d="M2310 638 l0 -148 95 0 c95 0 95 0 95 25 0 24 -2 25 -64 25 l-64 0
-4 40 -4 40 53 0 c46 0 53 3 53 20 0 17 -7 20 -50 20 l-50 0 0 40 0 40 65 0
c63 0 65 1 65 25 l0 25 -95 -2 -95 -2 0 -148z"/>
<path d="M2546 783 c-3 -4 -6 -71 -6 -150 l0 -143 30 0 c30 0 30 0 30 60 0 81
21 81 74 0 32 -51 43 -60 67 -60 16 0 29 3 29 6 0 3 -20 32 -44 64 l-44 58 23
12 c49 26 51 109 4 138 -22 14 -152 25 -163 15z m132 -55 c16 -16 15 -53 0
-65 -7 -6 -28 -13 -45 -16 l-33 -6 0 49 c0 50 0 50 33 50 18 0 38 -5 45 -12z"/>
<path d="M2770 763 c0 -21 5 -23 45 -23 l45 0 0 -125 0 -125 25 0 25 0 0 125
0 125 46 0 c41 0 45 2 42 21 -3 20 -9 21 -115 23 -112 2 -113 1 -113 -21z"/>
<path d="M1080 274 c0 -24 2 -25 46 -18 l46 7 -4 -127 -3 -126 28 0 27 0 0
126 0 125 45 -7 c44 -6 45 -5 45 20 l0 26 -115 0 -115 0 0 -26z"/>
<path d="M1345 156 l0 -146 28 0 c26 0 27 2 27 55 0 47 3 55 19 55 11 0 32
-21 55 -55 l36 -55 59 0 c59 0 60 0 71 35 l12 35 62 0 c61 0 62 0 71 -33 8
-25 16 -33 38 -35 15 -2 27 -1 27 2 0 2 -24 67 -54 143 -52 130 -57 138 -83
141 -29 3 -30 1 -83 -138 -29 -77 -56 -140 -60 -140 -3 0 -25 27 -48 60 -23
34 -35 60 -28 60 20 0 45 33 52 67 4 23 0 36 -19 59 -23 26 -31 29 -104 32
l-78 4 0 -146z m126 94 c12 -7 19 -21 19 -40 0 -32 -23 -50 -64 -50 -24 0 -26
3 -26 50 0 47 2 50 26 50 14 0 34 -5 45 -10z m246 -128 c-22 -2 -41 -1 -44 2
-3 3 3 26 12 53 9 26 19 55 22 63 2 8 14 -14 27 -50 l22 -65 -39 -3z"/>
<path d="M1880 155 l0 -145 30 0 30 0 0 145 0 145 -30 0 -30 0 0 -145z"/>
<path d="M2000 155 l0 -145 25 0 25 0 0 103 c1 92 2 100 15 82 108 -146 142
-184 163 -185 22 0 22 1 22 145 l0 145 -26 0 -25 0 3 -100 c2 -55 1 -100 -2
-100 -3 1 -39 46 -80 100 -56 75 -80 100 -97 100 -23 0 -23 -1 -23 -145z"/>
<path d="M2310 155 l0 -145 30 0 30 0 0 145 0 145 -30 0 -30 0 0 -145z"/>
<path d="M2430 155 l0 -145 25 0 25 0 0 103 c1 92 2 100 15 82 108 -146 142
-184 163 -185 22 0 22 1 22 145 l0 145 -26 0 -25 0 3 -100 c2 -55 1 -100 -2
-100 -3 1 -39 46 -80 100 -56 75 -80 100 -97 100 -23 0 -23 -1 -23 -145z"/>
<path d="M2793 280 c-88 -53 -84 -208 6 -255 34 -17 117 -20 155 -5 24 9 26
14 26 72 l0 63 -45 0 c-40 0 -45 -2 -45 -22 0 -18 6 -23 26 -23 22 0 25 -4 22
-27 -3 -26 -7 -28 -50 -31 -40 -3 -52 1 -73 22 -52 52 -41 144 21 174 33 15
38 15 82 0 35 -13 48 -14 54 -5 31 49 -111 79 -179 37z"/>
<path d="M450 145 c-6 -60 -14 -118 -16 -127 -4 -12 0 -18 10 -18 9 0 16 3 17
8 25 221 22 207 52 210 27 3 29 1 23 -25 -3 -15 -8 -66 -12 -112 -5 -68 -4
-83 7 -79 9 3 18 38 26 104 7 54 14 111 17 125 5 25 4 26 -54 25 l-58 -1 -12
-110z"/>
<path d="M930 240 c0 -8 -7 -64 -15 -125 -8 -61 -15 -111 -15 -112 0 -2 6 -3
14 -3 14 0 36 106 36 173 0 30 13 47 36 47 2 0 4 -49 4 -110 0 -91 3 -110 15
-110 13 0 15 21 15 128 l0 129 -45 -1 c-33 -1 -45 -5 -45 -16z"/>
</g>
</svg>
